<svg viewBox="0 0 300 300" xmlns="http://www.w3.org/2000/svg">
  <defs>
    <linearGradient id="mainGradient" x1="0%" y1="0%" x2="100%" y2="100%">
      <stop offset="0%" stop-color="#2B3A67" />
      <stop offset="100%" stop-color="#563D7C" />
    </linearGradient>
    <filter id="dropShadow" x="-20%" y="-20%" width="140%" height="140%">
      <feGaussianBlur in="SourceAlpha" stdDeviation="3" />
      <feOffset dx="2" dy="2" result="offsetblur" />
      <feComponentTransfer>
        <feFuncA type="linear" slope="0.2" />
      </feComponentTransfer>
      <feMerge>
        <feMergeNode />
        <feMergeNode in="SourceGraphic" />
      </feMerge>
    </filter>
  </defs>
  
  <!-- Rounded Square Background -->
  <rect x="50" y="50" width="200" height="200" rx="30" ry="30" fill="url(#mainGradient)" filter="url(#dropShadow)" />
  
  <!-- Connected nodes/community circles - subtle governance elements -->
  <circle cx="80" cy="80" r="5" fill="#8DB3E2" opacity="0.7" />
  <circle cx="120" cy="70" r="4" fill="#8DB3E2" opacity="0.6" />
  <circle cx="160" cy="65" r="3" fill="#8DB3E2" opacity="0.5" />
  <line x1="80" y1="80" x2="120" y2="70" stroke="#8DB3E2" stroke-width="1.5" opacity="0.4" />
  <line x1="120" y1="70" x2="160" y2="65" stroke="#8DB3E2" stroke-width="1.5" opacity="0.3" />
  
  <!-- "D" letter base -->
  <path d="M90 100 Q90 85, 105 85 L130 85 Q160 85, 160 115 L160 185 Q160 215, 130 215 L105 215 Q90 215, 90 200 Z" 
        fill="none" stroke="white" stroke-width="12" stroke-linecap="round" stroke-linejoin="round" />
  
  <!-- "G" element integrated -->
  <path d="M170 145 L190 145 L190 175 Q190 190, 175 190 L155 190 Q140 190, 140 175" 
        fill="none" stroke="white" stroke-width="12" stroke-linecap="round" stroke-linejoin="round" />
  
  <!-- Checkmark/Voting element -->
  <path d="M125 165 L145 185 L190 125" 
        fill="none" stroke="#8DB3E2" stroke-width="10" stroke-linecap="round" stroke-linejoin="round" />
  
  <!-- Light accent elements for transparency -->
  <circle cx="90" cy="85" r="3" fill="white" opacity="0.8" />
  <circle cx="160" cy="215" r="3" fill="white" opacity="0.8" />
  <circle cx="190" cy="145" r="3" fill="white" opacity="0.8" />
</svg>